<svg xmlns="http://www.w3.org/2000/svg" version="1.1" xmlns:xlink="http://www.w3.org/1999/xlink" xmlns:svgjs="http://svgjs.dev/svgjs" width="1500" height="1807" viewBox="0 0 1500 1807"><g transform="matrix(1,0,0,1,-0.14738642800489288,-2.5567127659570588)"><svg viewBox="0 0 117 141" data-background-color="#ffffff" preserveAspectRatio="xMidYMid meet" height="1807" width="1500" xmlns="http://www.w3.org/2000/svg" xmlns:xlink="http://www.w3.org/1999/xlink"><g id="tight-bounds" transform="matrix(1,0,0,1,0.011496141384384373,0.19949999999997203)"><svg viewBox="0 0 116.97700771723123 140.60052000000002" height="140.60052000000002" width="116.97700771723123"><g><svg viewBox="0 0 116.97700771723123 140.60052000000002" height="140.60052000000002" width="116.97700771723123"><g><svg viewBox="0 0 116.97700771723123 140.60052000000002" height="140.60052000000002" width="116.97700771723123"><g><path d="M0 140.601v-140.601h116.977v140.601z" fill="#7a26c1" stroke="transparent" stroke-width="0" rx="0%" data-fill-palette-color="tertiary"></path><path d="M3.283 137.317v-134.034h110.411v134.034z" fill="#ffffff" stroke="transparent" stroke-width="0" rx="0%" data-fill-palette-color="quaternary"></path><path d="M9.85 130.751v-120.901h97.277v120.901z" fill="#7a26c1" stroke="transparent" stroke-width="0" data-fill-palette-color="tertiary"></path></g><g transform="matrix(1,0,0,1,19.69974,19.69974)" id="textblocktransform"><svg viewBox="0 0 77.57752771723123 101.20104000000002" height="101.20104000000002" width="77.57752771723123" id="textblock"><g><svg viewBox="0 0 77.57752771723123 101.20104000000002" height="101.20104000000002" width="77.57752771723123"><g transform="matrix(1,0,0,1,0,0)"><svg width="77.57752771723123" viewBox="-0.49 -33.15 25.419999999999998 33.15" height="101.20104000000002" data-palette-color="#ffffff"><path d="M9.47 0L9.47-12.45-0.49-33.15 5.47-33.15 10.77-20.75 12.18-16.46 13.6-20.73 18.97-33.15 24.93-33.15 15.01-12.45 15.01 0 9.47 0Z" opacity="1" transform="matrix(1,0,0,1,0,0)" fill="#ffffff" class="wordmark-text-0" data-fill-palette-color="quaternary" id="text-0"></path></svg></g></svg></g></svg></g></svg></g><g></g></svg></g><defs></defs></svg><rect width="116.97700771723123" height="140.60052000000002" fill="none" stroke="none" visibility="hidden"></rect></g></svg></g></svg>